<?xml version="1.0" standalone="no"?>
<!DOCTYPE svg PUBLIC "-//W3C//DTD SVG 20010904//EN"
 "http://www.w3.org/TR/2001/REC-SVG-20010904/DTD/svg10.dtd">
<svg version="1.0" xmlns="http://www.w3.org/2000/svg"
 width="512.000000pt" height="512.000000pt" viewBox="0 0 512.000000 512.000000"
 preserveAspectRatio="xMidYMid meet">
<metadata>
Created by potrace 1.11, written by Peter Selinger 2001-2013
</metadata>
<g transform="translate(0.000000,512.000000) scale(0.100000,-0.100000)"
fill="#000000" stroke="none">
<path d="M1178 4766 c-318 -202 -535 -482 -593 -765 -17 -80 -18 -231 -3 -308
5 -27 11 -59 14 -72 8 -41 53 -142 84 -191 39 -61 131 -151 211 -206 66 -46
206 -118 252 -129 38 -10 43 -23 10 -31 -44 -11 -231 -92 -313 -136 -232 -125
-433 -292 -553 -461 -76 -106 -157 -284 -173 -377 -3 -14 -7 -32 -10 -40 -22
-62 -26 -358 -6 -460 71 -351 280 -642 622 -866 283 -185 718 -340 1090 -388
87 -11 135 -18 159 -21 125 -20 703 -27 876 -11 134 13 150 14 150 16 0 1 14
3 30 5 359 38 834 201 1147 393 197 121 402 295 514 437 21 28 41 52 44 55 28
28 143 214 172 280 61 135 105 276 124 395 10 63 13 335 4 390 -16 100 -21
121 -36 175 -57 198 -216 400 -416 526 -198 125 -532 234 -828 269 -19 3 -55
7 -80 10 -77 11 -103 14 -165 20 -33 3 -73 8 -90 10 -71 9 -396 31 -605 40
-69 3 -154 8 -190 10 -36 3 -123 7 -195 11 -218 9 -268 12 -325 18 -30 4 -77
9 -105 11 -54 6 -128 15 -160 21 -11 2 -59 11 -107 19 -282 50 -515 164 -607
298 -90 133 -102 336 -29 494 75 163 227 328 401 435 42 27 54 48 25 48 -16 0
-127 51 -190 87 -31 18 -62 33 -70 32 -7 0 -43 -20 -80 -43z m438 -1790 c16
-2 49 -8 74 -11 25 -4 52 -9 60 -10 9 -2 47 -6 85 -9 39 -4 81 -8 95 -11 32
-5 222 -17 480 -29 69 -4 161 -8 205 -11 44 -2 130 -7 190 -10 220 -11 395
-24 532 -40 26 -3 68 -7 93 -10 100 -10 155 -17 160 -20 3 -2 27 -6 53 -9 120
-16 376 -95 479 -147 86 -43 174 -107 239 -173 116 -116 170 -253 174 -441 10
-382 -185 -714 -566 -968 -243 -161 -595 -289 -936 -341 -197 -30 -318 -39
-528 -40 -322 0 -514 20 -835 89 -46 10 -253 78 -314 103 -108 43 -235 109
-324 168 -87 58 -277 236 -303 285 -8 15 -31 57 -53 94 -75 129 -115 296 -109
460 4 122 7 145 45 265 59 187 219 397 410 538 152 112 526 304 559 286 3 -2
19 -5 35 -8z"/>
</g>
</svg>
